<svg xmlns="http://www.w3.org/2000/svg" width="512" height="512" viewBox="0 0 463 463"><path d="M423.5 100H311V77.013c6.662-2.258 12.141-7.442 14.611-14.293 4.388-12.191-1.958-25.681-14.147-30.073C288.5 24.374 260.85 20 231.5 20s-57 4.374-79.964 12.647C139.347 37.039 133 50.529 137.39 62.723c2.524 7.003 8.053 12.072 14.61 14.29V100H39.5C17.72 100 0 117.72 0 139.5v264C0 425.28 17.72 443 39.5 443h384c21.78 0 39.5-17.72 39.5-39.5v-264c0-21.78-17.72-39.5-39.5-39.5M156.621 46.759C177.972 39.066 203.864 35 231.5 35s53.528 4.066 74.88 11.759c4.41 1.588 6.706 6.47 5.119 10.877a8.53 8.53 0 0 1-7.999 5.625c-.98 0-1.949-.17-2.879-.505C281.375 55.82 256.828 52 231.5 52s-49.875 3.82-69.12 10.756c-4.41 1.587-9.29-.708-10.878-5.117-1.587-4.41.708-9.291 5.119-10.88M167 77.022c.155-.052.31-.099.465-.154C185.121 70.504 207.862 67 231.5 67s46.379 3.504 64.036 9.869c.153.055.31.093.464.145V100H167zM15 139.5c0-13.509 10.991-24.5 24.5-24.5h384c13.509 0 24.5 10.991 24.5 24.5v72c0 48.799-39.701 88.5-88.5 88.5H263v-8.5c0-12.958-10.542-23.5-23.5-23.5h-16c-12.958 0-23.5 10.542-23.5 23.5v8.5h-96.5C54.701 300 15 260.299 15 211.5zm233 168c0 4.687-3.813 8.5-8.5 8.5h-16c-4.687 0-8.5-3.813-8.5-8.5v-16c0-4.687 3.813-8.5 8.5-8.5h16c4.687 0 8.5 3.813 8.5 8.5zm-33 21.903a23.4 23.4 0 0 0 8.5 1.597h16c2.997 0 5.862-.57 8.5-1.597V339.5c0 4.687-3.813 8.5-8.5 8.5h-16c-4.687 0-8.5-3.813-8.5-8.5zM448 403.5c0 13.509-10.991 24.5-24.5 24.5h-384C25.991 428 15 417.009 15 403.5V265.119C33.171 295 66.044 315 103.5 315H200v24.5c0 12.958 10.542 23.5 23.5 23.5h16c12.958 0 23.5-10.542 23.5-23.5V315h96.5c37.456 0 70.329-20 88.5-49.881z"/></svg>